<svg xmlns="http://www.w3.org/2000/svg" viewBox="0 0 64 64">
  <rect width="64" height="64" rx="14" fill="#090a0c"/>
  <path d="M32 6c14 11 22 24 21 37-.8 12-10 18-21 14-11 4-20-2-21-14C10 30 18 17 32 6Z" fill="#f3f5f4"/>
  <path d="M32 11c11 10 17 20 16 31-.6 8-7 12-16 9-9 3-15-1-16-9-1-11 5-21 16-31Z" fill="#111417"/>
  <path d="M18 45 46 17" fill="none" stroke="#d43f36" stroke-width="7" stroke-linecap="round"/>
  <path d="M21 48 49 20" fill="none" stroke="#d8b46d" stroke-width="2.5" stroke-linecap="round"/>
  <path d="M17 35 36 16M27 50 50 27" fill="none" stroke="#f3f5f4" stroke-width="2" stroke-linecap="round" opacity=".9"/>
</svg>
